<svg width="109" height="135" viewBox="0 0 109 135" fill="none" xmlns="http://www.w3.org/2000/svg">
<g opacity="0.3">
<path d="M99.5043 31.6103C94.8656 31.6155 90.418 33.4594 87.1388 36.7374C83.8588 40.0154 82.0137 44.4598 82.0093 49.0953V92.6469C82.0584 95.7636 81.487 98.8583 80.3275 101.752C79.168 104.645 77.4445 107.279 75.2567 109.5C73.0684 111.722 70.4602 113.486 67.5834 114.69C64.7066 115.894 61.6188 116.514 58.5 116.514C55.3811 116.514 52.2934 115.894 49.4166 114.69C46.5398 113.486 43.9315 111.722 41.7436 109.5C39.5557 107.279 37.8319 104.645 36.6725 101.752C35.5132 98.8583 34.9415 95.7636 34.9907 92.6469V49.0953C34.9907 44.4585 33.1475 40.0115 29.8664 36.7328C26.5854 33.4541 22.1354 31.6121 17.4954 31.6121C12.8553 31.6121 8.40529 33.4541 5.12426 36.7328C1.84324 40.0115 0 44.4585 0 49.0953V97.2582C-2.28951e-07 104.935 1.51314 112.537 4.45304 119.63C7.39294 126.723 11.7021 133.167 17.1343 138.596C22.5665 144.024 29.0155 148.33 36.113 151.268C43.2105 154.205 50.8177 155.718 58.5 155.718C66.1823 155.718 73.7895 154.205 80.8871 151.268C87.9848 148.33 94.4334 144.024 99.8654 138.596C105.298 133.167 109.607 126.723 112.547 119.63C115.487 112.537 117 104.935 117 97.2582V49.0953C116.995 44.4597 115.151 40.0154 111.871 36.7374C108.591 33.4594 104.143 31.6155 99.5043 31.6103ZM109.346 97.2546C109.346 110.731 103.988 123.654 94.4532 133.183C84.9179 142.711 71.9851 148.065 58.5 148.065C45.0148 148.065 32.0821 142.711 22.5467 133.183C13.0113 123.654 7.65429 110.731 7.65429 97.2546V49.0953C7.6767 46.5018 8.72332 44.0222 10.5665 42.1961C12.4096 40.3701 14.8999 39.3455 17.4954 39.3455C20.0908 39.3455 22.5811 40.3701 24.4242 42.1961C26.2673 44.0222 27.314 46.5018 27.3364 49.0953V92.6469C27.3364 100.906 30.6197 108.828 36.464 114.668C42.3083 120.508 50.2349 123.789 58.5 123.789C66.7651 123.789 74.6919 120.508 80.5363 114.668C86.3799 108.828 89.6636 100.906 89.6636 92.6469V49.0953C89.6636 46.4871 90.7 43.9857 92.5458 42.1415C94.3917 40.2972 96.8945 39.2611 99.5043 39.2611C102.115 39.2611 104.618 40.2972 106.463 42.1415C108.309 43.9857 109.346 46.4871 109.346 49.0953V97.2546Z" fill="url(#paint0_linear)"/>
<path d="M54.6727 40.5242V90.9445C54.6727 91.959 55.0759 92.9317 55.7937 93.6491C56.5113 94.3664 57.4848 94.769 58.4998 94.769C59.5148 94.769 60.4883 94.3664 61.206 93.6491C61.9238 92.9317 62.327 91.959 62.327 90.9445V40.5242C67.2683 39.5728 71.6773 36.815 74.6932 32.7896C77.7088 28.764 79.1151 23.7597 78.6368 18.7538C78.1585 13.7479 75.8308 9.09984 72.107 5.71717C68.3835 2.33453 63.532 0.460205 58.4998 0.460205C53.4676 0.460205 48.6161 2.33453 44.8926 5.71717C41.1691 9.09984 38.841 13.7479 38.3628 18.7538C37.8846 23.7597 39.2907 28.764 42.3066 32.7896C45.3224 36.815 49.7314 39.5728 54.6727 40.5242ZM58.4998 8.1174C60.9869 8.1174 63.4182 8.85441 65.4862 10.2353C67.5542 11.6161 69.166 13.5787 70.1177 15.8749C71.0694 18.1712 71.3185 20.6979 70.8332 23.1355C70.3479 25.5732 69.1501 27.8122 67.3914 29.5697C65.6327 31.327 63.392 32.5238 60.9527 33.0086C58.5132 33.4934 55.9848 33.2444 53.6871 32.2932C51.3893 31.342 49.4254 29.7312 48.0437 27.6646C46.6621 25.598 45.9247 23.1684 45.9248 20.683C45.9287 17.3514 47.2548 14.1575 49.6123 11.8018C51.9697 9.44613 55.166 8.12106 58.4998 8.1174Z" fill="url(#paint1_linear)"/>
</g>
<defs>
<linearGradient id="paint0_linear" x1="0" y1="93.6643" x2="117" y2="93.6643" gradientUnits="userSpaceOnUse">
<stop stop-color="#5855D6"/>
<stop offset="1" stop-color="#0E1566"/>
</linearGradient>
<linearGradient id="paint1_linear" x1="38.2712" y1="47.6146" x2="78.7284" y2="47.6146" gradientUnits="userSpaceOnUse">
<stop stop-color="#5855D6"/>
<stop offset="1" stop-color="#0E1566"/>
</linearGradient>
</defs>
</svg>
